<svg width="16" height="16" viewBox="0 0 16 16" fill="none" xmlns="http://www.w3.org/2000/svg">
    <path d="M7.80114 0C5.81029 0 5.52914 0.0114286 4.70171 0.048C3.85143 0.0868571 3.26857 0.221714 2.76114 0.420571C2.23543 0.624 1.78971 0.898286 1.344 1.344C0.898286 1.78971 0.626286 2.23543 0.420571 2.76114C0.224 3.27086 0.0868571 3.85143 0.048 4.70171C0.00914286 5.55429 0 5.82629 0 8C0 10.1714 0.00914286 10.4434 0.048 11.2983C0.0868571 12.1486 0.221714 12.7314 0.420571 13.2389C0.624 13.7646 0.898286 14.2103 1.344 14.656C1.78971 15.1017 2.23543 15.3737 2.76114 15.5794C3.27086 15.776 3.85143 15.9131 4.70171 15.952C5.55429 15.9909 5.82629 16 8 16C10.1714 16 10.4434 15.9909 11.2983 15.952C12.1486 15.9131 12.7314 15.7783 13.2389 15.5794C13.7646 15.376 14.2103 15.1017 14.656 14.656C15.1017 14.2103 15.3737 13.7646 15.5794 13.2389C15.776 12.7291 15.9131 12.1486 15.952 11.2983C15.9886 10.4709 16 10.1897 16 8.19886V7.80343C16 5.81257 15.9886 5.53143 15.952 4.704C15.9131 3.85371 15.7783 3.27086 15.5794 2.76343C15.376 2.23771 15.1017 1.792 14.656 1.34629C14.2103 0.900571 13.7646 0.628571 13.2389 0.422857C12.7291 0.226286 12.1486 0.0891429 11.2983 0.0502857C10.4709 0.0137143 10.1897 0.00228571 8.19886 0.00228571H7.80343L7.80114 0ZM8 1.44C10.1349 1.44 10.3886 1.44914 11.232 1.48571C12.0114 1.52229 12.4343 1.65257 12.7177 1.76C13.0903 1.904 13.3577 2.07771 13.6366 2.35886C13.9154 2.63771 14.0891 2.90514 14.2354 3.27771C14.3451 3.55886 14.4754 3.984 14.5097 4.76343C14.5486 5.60686 14.5554 5.86057 14.5554 7.99543C14.5554 10.1303 14.5463 10.384 14.5097 11.2274C14.4731 12.0069 14.3429 12.4297 14.2354 12.7131C14.0914 13.0857 13.9177 13.3531 13.6366 13.632C13.3577 13.9109 13.0903 14.0846 12.7177 14.2309C12.4366 14.3406 12.0114 14.4709 11.232 14.5051C10.3886 14.544 10.1349 14.5509 8 14.5509C5.86514 14.5509 5.61143 14.5417 4.768 14.5051C3.98857 14.4686 3.56571 14.3383 3.28229 14.2309C2.90971 14.0869 2.64229 13.9131 2.36343 13.632C2.08457 13.3531 1.91086 13.0857 1.76457 12.7131C1.65486 12.432 1.52457 12.0069 1.49029 11.2274C1.45143 10.384 1.44457 10.1303 1.44457 7.99543C1.44457 5.86057 1.45371 5.60686 1.49029 4.76343C1.52686 3.984 1.65714 3.56114 1.76457 3.27771C1.90857 2.90514 2.08229 2.63771 2.36343 2.35886C2.64229 2.08 2.90971 1.90629 3.28229 1.76C3.56343 1.65029 3.98857 1.52 4.768 1.48571C5.61143 1.44686 5.86514 1.44 8 1.44Z" fill="white"/>
    <path d="M7.99995 10.6651C6.52795 10.6651 5.3348 9.472 5.3348 8C5.3348 6.528 6.52795 5.33486 7.99995 5.33486C9.47195 5.33486 10.6651 6.528 10.6651 8C10.6651 9.472 9.47195 10.6651 7.99995 10.6651ZM7.99995 3.89258C5.73252 3.89258 3.89252 5.73029 3.89252 8C3.89252 10.2674 5.73023 12.1074 7.99995 12.1074C10.2674 12.1074 12.1074 10.2697 12.1074 8C12.1074 5.73258 10.2697 3.89258 7.99995 3.89258Z" fill="white"/>
    <path d="M13.2274 3.73002C13.2274 4.26031 12.7977 4.69002 12.2674 4.69002C11.7371 4.69002 11.3074 4.26031 11.3074 3.73002C11.3074 3.19974 11.7371 2.77002 12.2674 2.77002C12.7977 2.77002 13.2274 3.19974 13.2274 3.73002Z" fill="white"/>
</svg>